# xmcd
#
# Track frame offsets:
#	150
#	20201
#	41958
#	54924
#	73745
#	87431
#	103830
#	121371
#	137398
#	153621
#	166395
#
# Disc length: 2414 seconds
#
# Revision: 1
# Processed by: cddbd v1.5.2PL0 Copyright (c) Steve Scherf et al.
# Submitted via: audiograbber 1.83.01
#
DISCID=9b096c0b
DTITLE=Various Artist - The Music Inside - A Collaboration Dedicated to Waylon
DTITLE=Jennings Vol II
DYEAR=2012
DGENRE=Country
TTITLE0=Dierks Bentley - Lonesome, On'ry And Mean
TTITLE1=Hank WIlliams, Jr - Waymore's Blues
TTITLE2=Montgomery Gentry - Good Ol' Boys (Dukes Of Hazzard Theme Song)
TTITLE3=Justin Moore - I Ain't Livin' Long Like This
TTITLE4=Jack Ingram - Bob Wills Is Still The King
TTITLE5=Colt Ford - Only Daddy That'll Walk The Line
TTITLE6=Pat Green - Rainy Day Woman
TTITLE7=Josh Thompson - Love Of The Common People
TTITLE8=Jessi Colter - Mama
TTITLE9=Jewel - Dreaming My Dreams With You
TTITLE10=Wyatt Mccubbin - A Long Time Ago
EXTD=
EXTT0=
EXTT1=
EXTT2=
EXTT3=
EXTT4=
EXTT5=
EXTT6=
EXTT7=
EXTT8=
EXTT9=
EXTT10=
PLAYORDER=
